<?xml version="1.0"?><svg width="640" height="480" xmlns="http://www.w3.org/2000/svg">
 <title>black man</title>
 <metadata id="metadata926">image/svg+xmlmale silhouetteNicu BuculeiNicu Buculeishape</metadata>
 <g>
  <title>Layer 1</title>
  <path d="m226.542511,75.3125c2.87912,5.75827 1.241257,10.696167 0.521454,16.454437c-7.474762,6.998482 -31.078003,3.503777 -34.890991,9.753044c-7.947052,12.036972 -32.768219,47.871315 -33.011703,58.775093c0.291656,9.585953 20.008987,44.251572 31.402328,56.012711c2.711792,0.599182 7.019241,1.031265 8.741089,-0.38623c0.898773,-4.934631 1.165802,-8.901169 2.209076,-12.629669c-1.445145,-0.846939 -3.171661,-0.18718 -5.262741,-0.063065c-5.790375,-7.034485 -11.968796,-33.653076 -13.056229,-40.274124c5.266464,-9.521408 8.785721,-21.776718 17.700729,-35.798447c2.478134,18.587753 7.906296,47.882599 5.562317,58.893417c-19.573776,42.669769 3.037552,130.680374 3.621933,146.856583c-6.449905,30.650726 9.279663,90.593445 9.67836,96.152374c-0.428131,5.145477 -3.490845,8.939697 -1.545578,12.125183c-2.602173,11.040253 -4.49614,15.027557 -2.336792,21.505615c2.159363,6.478027 17.766052,8.093964 20.766937,4.096375c0.933838,-6.064636 -0.607574,-21.373505 -2.766937,-24.252625c1.147919,-2.465729 2.54126,-11.109589 0.197281,-18.521484c-2.757401,-9.478943 5.824509,-63.067963 -0.775299,-78.042938c0.841537,-3.399567 2.172791,-14.491333 2.1875,-19.4375c-0.80452,-2.975708 0.479523,-35.100311 2,-60.1875c1.526352,25.114624 2.806839,57.421967 2,60.40625c-2.879135,2.87912 0.518097,18.513062 2.599854,21.499237c-2.052322,6.293427 3.223373,66.502258 7.493896,73.500763c-2.343979,7.411896 0.289597,14.815552 1.4375,17.28125c-2.159348,2.87915 -4.527588,19.841614 -3.59375,25.90625c3.00087,3.99762 19.434402,0.728027 21.593735,-5.75c2.159363,-6.478058 -0.980133,-8.397247 -3.582306,-19.4375c1.945282,-3.185516 -0.734222,-10.698242 -1.162354,-15.84375c0.398712,-5.558929 8.71817,-58.48114 2.26828,-89.956573c-1.065002,-14.526825 25.839294,-107.339905 3.902527,-147.961868c0.903473,-12.098999 -0.436401,-42.534225 2.151093,-60.033791c-0.719788,6.47805 2.520081,48.077644 7.20401,60.420982c-3.170776,15.237198 1.748047,57.893936 -1.131104,62.212646c-1.229736,5.143402 -1.411316,13.638306 -1.944336,20.15625c3.598907,-2.159363 3.042908,-4.591522 5.231689,-3.181396c2.602203,5.130798 -5.80896,10.989868 -5.838409,15.537354c5.75827,0 16.487213,-7.218872 12.338409,-31.381104c-0.014709,-9.692993 15.980652,-62.047592 8.295837,-75.018417c2.65033,-8.42334 -3.765808,-60.691994 -8.819031,-71.075333c-3.812988,-6.249283 -28.002014,-3.814011 -35.476791,-10.8125c-0.719788,-5.75827 -3.597885,-11.52298 -0.71875,-17.28125c6.478073,-9.357193 6.709488,-40.116562 -11.3125,-40.28125c-23.263046,0.013081 -20.358307,30.705307 -13.880234,40.0625z" id="path943" stroke-linejoin="round" stroke-width="1pt" stroke="#000000" fill-rule="evenodd" fill="#ffffff"/>
 </g>
</svg>